%TF.GenerationSoftware,KiCad,Pcbnew,7.0.0-1.fc37*%
%TF.CreationDate,2023-03-02T16:58:32+00:00*%
%TF.ProjectId,led_strip_controller,6c65645f-7374-4726-9970-5f636f6e7472,4*%
%TF.SameCoordinates,Original*%
%TF.FileFunction,Copper,L1,Top*%
%TF.FilePolarity,Positive*%
%FSLAX46Y46*%
G04 Gerber Fmt 4.6, Leading zero omitted, Abs format (unit mm)*
G04 Created by KiCad (PCBNEW 7.0.0-1.fc37) date 2023-03-02 16:58:32*
%MOMM*%
%LPD*%
G01*
G04 APERTURE LIST*
G04 Aperture macros list*
%AMRoundRect*
0 Rectangle with rounded corners*
0 $1 Rounding radius*
0 $2 $3 $4 $5 $6 $7 $8 $9 X,Y pos of 4 corners*
0 Add a 4 corners polygon primitive as box body*
4,1,4,$2,$3,$4,$5,$6,$7,$8,$9,$2,$3,0*
0 Add four circle primitives for the rounded corners*
1,1,$1+$1,$2,$3*
1,1,$1+$1,$4,$5*
1,1,$1+$1,$6,$7*
1,1,$1+$1,$8,$9*
0 Add four rect primitives between the rounded corners*
20,1,$1+$1,$2,$3,$4,$5,0*
20,1,$1+$1,$4,$5,$6,$7,0*
20,1,$1+$1,$6,$7,$8,$9,0*
20,1,$1+$1,$8,$9,$2,$3,0*%
G04 Aperture macros list end*
%TA.AperFunction,ComponentPad*%
%ADD10R,2.000000X1.905000*%
%TD*%
%TA.AperFunction,ComponentPad*%
%ADD11O,2.000000X1.905000*%
%TD*%
%TA.AperFunction,ComponentPad*%
%ADD12R,4.400000X1.800000*%
%TD*%
%TA.AperFunction,ComponentPad*%
%ADD13O,4.000000X1.800000*%
%TD*%
%TA.AperFunction,ComponentPad*%
%ADD14O,1.800000X4.000000*%
%TD*%
%TA.AperFunction,ComponentPad*%
%ADD15C,1.600000*%
%TD*%
%TA.AperFunction,ComponentPad*%
%ADD16O,1.600000X1.600000*%
%TD*%
%TA.AperFunction,ComponentPad*%
%ADD17RoundRect,0.248400X-0.651600X-0.651600X0.651600X-0.651600X0.651600X0.651600X-0.651600X0.651600X0*%
%TD*%
%TA.AperFunction,ComponentPad*%
%ADD18C,1.800000*%
%TD*%
%TA.AperFunction,ComponentPad*%
%ADD19RoundRect,0.250000X0.350000X0.650000X-0.350000X0.650000X-0.350000X-0.650000X0.350000X-0.650000X0*%
%TD*%
%TA.AperFunction,ComponentPad*%
%ADD20O,1.200000X1.800000*%
%TD*%
%TA.AperFunction,ComponentPad*%
%ADD21R,1.350000X1.350000*%
%TD*%
%TA.AperFunction,ComponentPad*%
%ADD22O,1.350000X1.350000*%
%TD*%
%TA.AperFunction,ComponentPad*%
%ADD23R,1.200000X1.200000*%
%TD*%
%TA.AperFunction,ComponentPad*%
%ADD24C,1.200000*%
%TD*%
%TA.AperFunction,ComponentPad*%
%ADD25O,1.700000X1.700000*%
%TD*%
%TA.AperFunction,SMDPad,CuDef*%
%ADD26R,1.700000X3.500000*%
%TD*%
%TA.AperFunction,ComponentPad*%
%ADD27R,1.700000X1.700000*%
%TD*%
%TA.AperFunction,SMDPad,CuDef*%
%ADD28R,3.500000X1.700000*%
%TD*%
%TA.AperFunction,Conductor*%
%ADD29C,0.250000*%
%TD*%
G04 APERTURE END LIST*
D10*
X142499999Y-72419999D03*
D11*
X142499999Y-74959999D03*
X142499999Y-77499999D03*
D10*
X147499999Y-59919999D03*
D11*
X147499999Y-62459999D03*
X147499999Y-64999999D03*
D10*
X157499999Y-72459999D03*
D11*
X157499999Y-74999999D03*
X157499999Y-77539999D03*
D10*
X103978726Y-75932717D03*
D11*
X103978726Y-73392717D03*
X103978726Y-70852717D03*
D12*
X115319999Y-63849999D03*
D13*
X115319999Y-58049999D03*
D14*
X110519999Y-60849999D03*
D15*
X142449793Y-58684866D03*
D16*
X142449792Y-66304865D03*
D17*
X110870000Y-117500000D03*
D18*
X113410000Y-117500000D03*
X115950000Y-117500000D03*
D19*
X132720000Y-58825000D03*
D20*
X130719999Y-58824999D03*
X128719999Y-58824999D03*
X126719999Y-58824999D03*
D21*
X157219999Y-103499999D03*
D22*
X157219999Y-105499999D03*
X157219999Y-107499999D03*
D23*
X129719999Y-75499999D03*
D24*
X129720000Y-77500000D03*
D25*
X101739999Y-105279999D03*
D26*
X101739999Y-106179999D03*
D25*
X104279999Y-105279999D03*
D26*
X104279999Y-106179999D03*
D27*
X106819999Y-105279999D03*
D26*
X106819999Y-106179999D03*
D25*
X109359999Y-105279999D03*
D26*
X109359999Y-106179999D03*
D25*
X111899999Y-105279999D03*
D26*
X111899999Y-106179999D03*
D25*
X114439999Y-105279999D03*
D26*
X114439999Y-106179999D03*
D25*
X116979999Y-105279999D03*
D26*
X116979999Y-106179999D03*
D27*
X119519999Y-105279999D03*
D26*
X119519999Y-106179999D03*
D25*
X122059999Y-105279999D03*
D26*
X122059999Y-106179999D03*
D25*
X124599999Y-105279999D03*
D26*
X124599999Y-106179999D03*
D25*
X127139999Y-105279999D03*
D26*
X127139999Y-106179999D03*
D25*
X129679999Y-105279999D03*
D26*
X129679999Y-106179999D03*
D27*
X132219999Y-105279999D03*
D26*
X132219999Y-106179999D03*
D25*
X134759999Y-105279999D03*
D26*
X134759999Y-106179999D03*
D25*
X137299999Y-105279999D03*
D26*
X137299999Y-106179999D03*
D25*
X139839999Y-105279999D03*
D26*
X139839999Y-106179999D03*
D25*
X142379999Y-105279999D03*
D26*
X142379999Y-106179999D03*
D27*
X144919999Y-105279999D03*
D26*
X144919999Y-106179999D03*
D25*
X147459999Y-105279999D03*
D26*
X147459999Y-106179999D03*
D25*
X149999999Y-105279999D03*
D26*
X149999999Y-106179999D03*
D25*
X149999999Y-87499999D03*
D26*
X149999999Y-86599999D03*
D25*
X147459999Y-87499999D03*
D26*
X147459999Y-86599999D03*
D27*
X144919999Y-87499999D03*
D26*
X144919999Y-86599999D03*
D25*
X142379999Y-87499999D03*
D26*
X142379999Y-86599999D03*
D25*
X139839999Y-87499999D03*
D26*
X139839999Y-86599999D03*
D25*
X137299999Y-87499999D03*
D26*
X137299999Y-86599999D03*
D25*
X134759999Y-87499999D03*
D26*
X134759999Y-86599999D03*
D27*
X132219999Y-87499999D03*
D26*
X132219999Y-86599999D03*
D25*
X129679999Y-87499999D03*
D26*
X129679999Y-86599999D03*
D25*
X127139999Y-87499999D03*
D26*
X127139999Y-86599999D03*
D25*
X124599999Y-87499999D03*
D26*
X124599999Y-86599999D03*
D25*
X122059999Y-87499999D03*
D26*
X122059999Y-86599999D03*
D27*
X119519999Y-87499999D03*
D26*
X119519999Y-86599999D03*
D25*
X116979999Y-87499999D03*
D26*
X116979999Y-86599999D03*
D25*
X114439999Y-87499999D03*
D26*
X114439999Y-86599999D03*
D25*
X111899999Y-87499999D03*
D26*
X111899999Y-86599999D03*
D25*
X109359999Y-87499999D03*
D26*
X109359999Y-86599999D03*
D27*
X106819999Y-87499999D03*
D26*
X106819999Y-86599999D03*
D25*
X104279999Y-87499999D03*
D26*
X104279999Y-86599999D03*
D25*
X101739999Y-87499999D03*
D26*
X101739999Y-86599999D03*
D25*
X149769999Y-98929999D03*
D28*
X150669999Y-98929999D03*
D27*
X149769999Y-96389999D03*
D28*
X150669999Y-96389999D03*
D25*
X149769999Y-93849999D03*
D28*
X150669999Y-93849999D03*
D15*
X152220000Y-71190000D03*
D16*
X152219999Y-78809999D03*
D23*
X129719999Y-70499999D03*
D24*
X129720000Y-72500000D03*
D15*
X122220000Y-112500000D03*
D16*
X114599999Y-112499999D03*
D15*
X137220000Y-71190000D03*
D16*
X137219999Y-78809999D03*
D21*
X157219999Y-92999999D03*
D22*
X157219999Y-94999999D03*
X157219999Y-96999999D03*
D29*
X128720000Y-58825000D02*
X137395000Y-67500000D01*
X137395000Y-67500000D02*
X157500000Y-67500000D01*
X157500000Y-67500000D02*
X160000000Y-70000000D01*
X160000000Y-70000000D02*
X160000000Y-72500000D01*
X160000000Y-72500000D02*
X157500000Y-75000000D01*
X132045000Y-57500000D02*
X137500000Y-57500000D01*
X130720000Y-58825000D02*
X132045000Y-57500000D01*
X137500000Y-57500000D02*
X142460000Y-62460000D01*
X142460000Y-62460000D02*
X147500000Y-62460000D01*
X142449793Y-58684866D02*
X146264866Y-58684866D01*
X146264866Y-58684866D02*
X147500000Y-59920000D01*
X140000000Y-74872500D02*
X140000000Y-80000000D01*
X137300000Y-82700000D02*
X137300000Y-87500000D01*
X142452500Y-72420000D02*
X140000000Y-74872500D01*
X142500000Y-72420000D02*
X142452500Y-72420000D01*
X140000000Y-80000000D02*
X137300000Y-82700000D01*
X137220000Y-71190000D02*
X141270000Y-71190000D01*
X141270000Y-71190000D02*
X142500000Y-72420000D01*
X152220000Y-71190000D02*
X156230000Y-71190000D01*
X156230000Y-71190000D02*
X157500000Y-72460000D01*
X152220000Y-71190000D02*
X142380000Y-81030000D01*
X142380000Y-81030000D02*
X142380000Y-87500000D01*
X121695000Y-63850000D02*
X126720000Y-58825000D01*
X115320000Y-63850000D02*
X121695000Y-63850000D01*
X115320000Y-63850000D02*
X115320000Y-64591445D01*
X115320000Y-64591445D02*
X103978727Y-75932718D01*
X128345000Y-70500000D02*
X129720000Y-70500000D01*
X121695000Y-63850000D02*
X128345000Y-70500000D01*
X104280000Y-78836491D02*
X104280000Y-87500000D01*
X105616491Y-77500000D02*
X127720000Y-77500000D01*
X102653727Y-72177718D02*
X102653727Y-77210218D01*
X127720000Y-77500000D02*
X129720000Y-75500000D01*
X102653727Y-77210218D02*
X104280000Y-78836491D01*
X103978727Y-70852718D02*
X102653727Y-72177718D01*
X104280000Y-78836491D02*
X105616491Y-77500000D01*
X149770000Y-93850000D02*
X156370000Y-93850000D01*
X156370000Y-93850000D02*
X157220000Y-93000000D01*
X149770000Y-96390000D02*
X155830000Y-96390000D01*
X155830000Y-96390000D02*
X157220000Y-95000000D01*
X149770000Y-98930000D02*
X155290000Y-98930000D01*
X155290000Y-98930000D02*
X157220000Y-97000000D01*
X144920000Y-105280000D02*
X146700000Y-103500000D01*
X146700000Y-103500000D02*
X157220000Y-103500000D01*
X143745000Y-108255000D02*
X154465000Y-108255000D01*
X154465000Y-108255000D02*
X157220000Y-105500000D01*
X142380000Y-106890000D02*
X143745000Y-108255000D01*
X142380000Y-105280000D02*
X142380000Y-106890000D01*
X142950000Y-110000000D02*
X154720000Y-110000000D01*
X139840000Y-106890000D02*
X142950000Y-110000000D01*
X154720000Y-110000000D02*
X157220000Y-107500000D01*
X139840000Y-105280000D02*
X139840000Y-106890000D01*
X114600000Y-112500000D02*
X114600000Y-116310000D01*
X114600000Y-116310000D02*
X113410000Y-117500000D01*
X109360000Y-115990000D02*
X110870000Y-117500000D01*
X109360000Y-105280000D02*
X109360000Y-115990000D01*
X132720000Y-58825000D02*
X132979158Y-58825000D01*
M02*
