%TF.GenerationSoftware,KiCad,Pcbnew,7.0.0-1.fc37*%
%TF.CreationDate,2023-03-02T16:58:32+00:00*%
%TF.ProjectId,led_strip_controller,6c65645f-7374-4726-9970-5f636f6e7472,4*%
%TF.SameCoordinates,Original*%
%TF.FileFunction,Soldermask,Bot*%
%TF.FilePolarity,Negative*%
%FSLAX46Y46*%
G04 Gerber Fmt 4.6, Leading zero omitted, Abs format (unit mm)*
G04 Created by KiCad (PCBNEW 7.0.0-1.fc37) date 2023-03-02 16:58:32*
%MOMM*%
%LPD*%
G01*
G04 APERTURE LIST*
G04 Aperture macros list*
%AMRoundRect*
0 Rectangle with rounded corners*
0 $1 Rounding radius*
0 $2 $3 $4 $5 $6 $7 $8 $9 X,Y pos of 4 corners*
0 Add a 4 corners polygon primitive as box body*
4,1,4,$2,$3,$4,$5,$6,$7,$8,$9,$2,$3,0*
0 Add four circle primitives for the rounded corners*
1,1,$1+$1,$2,$3*
1,1,$1+$1,$4,$5*
1,1,$1+$1,$6,$7*
1,1,$1+$1,$8,$9*
0 Add four rect primitives between the rounded corners*
20,1,$1+$1,$2,$3,$4,$5,0*
20,1,$1+$1,$4,$5,$6,$7,0*
20,1,$1+$1,$6,$7,$8,$9,0*
20,1,$1+$1,$8,$9,$2,$3,0*%
G04 Aperture macros list end*
%ADD10R,2.000000X1.905000*%
%ADD11O,2.000000X1.905000*%
%ADD12C,4.000000*%
%ADD13O,3.500000X3.500000*%
%ADD14R,4.400000X1.800000*%
%ADD15O,4.000000X1.800000*%
%ADD16O,1.800000X4.000000*%
%ADD17C,1.600000*%
%ADD18O,1.600000X1.600000*%
%ADD19RoundRect,0.248400X-0.651600X-0.651600X0.651600X-0.651600X0.651600X0.651600X-0.651600X0.651600X0*%
%ADD20C,1.800000*%
%ADD21C,1.200000*%
%ADD22RoundRect,0.250000X0.350000X0.650000X-0.350000X0.650000X-0.350000X-0.650000X0.350000X-0.650000X0*%
%ADD23O,1.200000X1.800000*%
%ADD24R,1.350000X1.350000*%
%ADD25O,1.350000X1.350000*%
%ADD26R,1.200000X1.200000*%
%ADD27O,1.800000X1.800000*%
%ADD28O,1.500000X1.500000*%
%ADD29O,1.700000X1.700000*%
%ADD30R,1.700000X1.700000*%
G04 APERTURE END LIST*
D10*
X142499999Y-72419999D03*
D11*
X142499999Y-74959999D03*
X142499999Y-77499999D03*
D10*
X147499999Y-59919999D03*
D11*
X147499999Y-62459999D03*
X147499999Y-64999999D03*
D10*
X157499999Y-72459999D03*
D11*
X157499999Y-74999999D03*
X157499999Y-77539999D03*
D12*
X157220000Y-60000000D03*
D13*
X120638726Y-73392717D03*
D10*
X103978726Y-75932717D03*
D11*
X103978726Y-73392717D03*
X103978726Y-70852717D03*
D14*
X115319999Y-63849999D03*
D15*
X115319999Y-58049999D03*
D16*
X110519999Y-60849999D03*
D17*
X142449793Y-58684866D03*
D18*
X142449792Y-66304865D03*
D19*
X110870000Y-117500000D03*
D20*
X113410000Y-117500000D03*
X115950000Y-117500000D03*
D21*
X134720000Y-56425000D03*
X124720000Y-56425000D03*
D22*
X132720000Y-58825000D03*
D23*
X130719999Y-58824999D03*
X128719999Y-58824999D03*
X126719999Y-58824999D03*
D24*
X157219999Y-103499999D03*
D25*
X157219999Y-105499999D03*
X157219999Y-107499999D03*
D26*
X129719999Y-75499999D03*
D21*
X129720000Y-77500000D03*
D27*
X101869999Y-99114999D03*
D28*
X104899999Y-98814999D03*
X104899999Y-93964999D03*
D27*
X101869999Y-93664999D03*
D29*
X101739999Y-105279999D03*
X104279999Y-105279999D03*
D30*
X106819999Y-105279999D03*
D29*
X109359999Y-105279999D03*
X111899999Y-105279999D03*
X114439999Y-105279999D03*
X116979999Y-105279999D03*
D30*
X119519999Y-105279999D03*
D29*
X122059999Y-105279999D03*
X124599999Y-105279999D03*
X127139999Y-105279999D03*
X129679999Y-105279999D03*
D30*
X132219999Y-105279999D03*
D29*
X134759999Y-105279999D03*
X137299999Y-105279999D03*
X139839999Y-105279999D03*
X142379999Y-105279999D03*
D30*
X144919999Y-105279999D03*
D29*
X147459999Y-105279999D03*
X149999999Y-105279999D03*
X149999999Y-87499999D03*
X147459999Y-87499999D03*
D30*
X144919999Y-87499999D03*
D29*
X142379999Y-87499999D03*
X139839999Y-87499999D03*
X137299999Y-87499999D03*
X134759999Y-87499999D03*
D30*
X132219999Y-87499999D03*
D29*
X129679999Y-87499999D03*
X127139999Y-87499999D03*
X124599999Y-87499999D03*
X122059999Y-87499999D03*
D30*
X119519999Y-87499999D03*
D29*
X116979999Y-87499999D03*
X114439999Y-87499999D03*
X111899999Y-87499999D03*
X109359999Y-87499999D03*
D30*
X106819999Y-87499999D03*
D29*
X104279999Y-87499999D03*
X101739999Y-87499999D03*
X149769999Y-98929999D03*
D30*
X149769999Y-96389999D03*
D29*
X149769999Y-93849999D03*
D17*
X152220000Y-71190000D03*
D18*
X152219999Y-78809999D03*
D26*
X129719999Y-70499999D03*
D21*
X129720000Y-72500000D03*
D12*
X157220000Y-115000000D03*
D17*
X122220000Y-112500000D03*
D18*
X114599999Y-112499999D03*
D12*
X102220000Y-60000000D03*
D17*
X137220000Y-71190000D03*
D18*
X137219999Y-78809999D03*
D12*
X102220000Y-115000000D03*
D24*
X157219999Y-92999999D03*
D25*
X157219999Y-94999999D03*
X157219999Y-96999999D03*
M02*
