M48
; DRILL file {KiCad 7.0.0-1.fc37} date Thu 02 Mar 2023 16:58:44 GMT
; FORMAT={-:-/ absolute / metric / decimal}
; #@! TF.CreationDate,2023-03-02T16:58:44+00:00
; #@! TF.GenerationSoftware,Kicad,Pcbnew,7.0.0-1.fc37
; #@! TF.FileFunction,Plated,1,2,PTH
FMAT,2
METRIC
; #@! TA.AperFunction,Plated,PTH,ComponentDrill
T1C0.600
; #@! TA.AperFunction,Plated,PTH,ComponentDrill
T2C0.800
; #@! TA.AperFunction,Plated,PTH,ComponentDrill
T3C0.900
; #@! TA.AperFunction,Plated,PTH,ComponentDrill
T4C1.020
; #@! TA.AperFunction,Plated,PTH,ComponentDrill
T5C1.100
%
G90
G05
T1
X129.72Y-70.5
X129.72Y-72.5
X129.72Y-75.5
X129.72Y-77.5
T2
X114.6Y-112.5
X122.22Y-112.5
X126.72Y-58.825
X128.72Y-58.825
X130.72Y-58.825
X132.72Y-58.825
X137.22Y-71.19
X137.22Y-78.81
X142.45Y-58.685
X142.45Y-66.305
X152.22Y-71.19
X152.22Y-78.81
X157.22Y-93.0
X157.22Y-95.0
X157.22Y-97.0
X157.22Y-103.5
X157.22Y-105.5
X157.22Y-107.5
T3
X110.87Y-117.5
X113.41Y-117.5
X115.95Y-117.5
T4
X101.74Y-87.5
X101.74Y-105.28
X104.28Y-87.5
X104.28Y-105.28
X106.82Y-87.5
X106.82Y-105.28
X109.36Y-87.5
X109.36Y-105.28
X111.9Y-87.5
X111.9Y-105.28
X114.44Y-87.5
X114.44Y-105.28
X116.98Y-87.5
X116.98Y-105.28
X119.52Y-87.5
X119.52Y-105.28
X122.06Y-87.5
X122.06Y-105.28
X124.6Y-87.5
X124.6Y-105.28
X127.14Y-87.5
X127.14Y-105.28
X129.68Y-87.5
X129.68Y-105.28
X132.22Y-87.5
X132.22Y-105.28
X134.76Y-87.5
X134.76Y-105.28
X137.3Y-87.5
X137.3Y-105.28
X139.84Y-87.5
X139.84Y-105.28
X142.38Y-87.5
X142.38Y-105.28
X144.92Y-87.5
X144.92Y-105.28
X147.46Y-87.5
X147.46Y-105.28
X149.77Y-93.85
X149.77Y-96.39
X149.77Y-98.93
X150.0Y-87.5
X150.0Y-105.28
T5
X103.979Y-70.853
X103.979Y-73.393
X103.979Y-75.933
X142.5Y-72.42
X142.5Y-74.96
X142.5Y-77.5
X147.5Y-59.92
X147.5Y-62.46
X147.5Y-65.0
X157.5Y-72.46
X157.5Y-75.0
X157.5Y-77.54
T2
X110.52Y-59.75G85X110.52Y-61.95
G05
X116.42Y-58.05G85X114.22Y-58.05
G05
X116.62Y-63.85G85X114.02Y-63.85
G05
T0
M30
